<svg xmlns="http://www.w3.org/2000/svg" viewBox="0 0 560 380" role="img" aria-label="Car care products">
  <rect width="560" height="380" fill="none"/>
  <g opacity=".35">
    <path d="M42 262c66-35 128-54 215-54 91 0 142-30 243-92" fill="none" stroke="#ffd21f" stroke-width="6" stroke-linecap="round"/>
    <path d="M54 294c83-39 151-42 244-47 73-4 111-19 184-62" fill="none" stroke="#ffd21f" stroke-width="3" stroke-linecap="round"/>
  </g>
  <g transform="translate(317 31)">
    <path d="M62 0h64c12 0 20 9 20 20v18c0 7-5 12-12 12H54c-7 0-12-5-12-12V20C42 9 50 0 62 0Z" fill="#171a1c" stroke="#ffd21f" stroke-width="4"/>
    <path d="M50 48h96l38 84v176c0 21-17 38-38 38H50c-21 0-38-17-38-38V132L50 48Z" fill="#111416" stroke="#656d72" stroke-width="4"/>
    <path d="M43 105h110c8 0 15 7 15 15v116c0 8-7 15-15 15H43c-8 0-15-7-15-15V120c0-8 7-15 15-15Z" fill="#060708" stroke="#2d3438" stroke-width="3"/>
    <path d="M50 128h88v18H50zM50 159h70v12H50zM50 181h82v12H50z" fill="#ffd21f"/>
    <text x="49" y="226" fill="#fff" font-family="Arial Black,Arial,sans-serif" font-size="33">5W-30</text>
    <path d="M35 281h128" stroke="#ffd21f" stroke-width="5" stroke-linecap="round"/>
  </g>
  <g transform="translate(155 141)">
    <circle cx="83" cy="83" r="80" fill="#1a1d1f" stroke="#6a7075" stroke-width="5"/>
    <circle cx="83" cy="83" r="43" fill="#050607" stroke="#d8dde0" stroke-width="12"/>
    <circle cx="83" cy="83" r="12" fill="#ffd21f"/>
    <g fill="#d8dde0">
      <circle cx="83" cy="22" r="7"/><circle cx="83" cy="144" r="7"/>
      <circle cx="22" cy="83" r="7"/><circle cx="144" cy="83" r="7"/>
      <circle cx="40" cy="40" r="6"/><circle cx="126" cy="126" r="6"/>
      <circle cx="126" cy="40" r="6"/><circle cx="40" cy="126" r="6"/>
    </g>
  </g>
  <g transform="translate(252 234)">
    <ellipse cx="66" cy="121" rx="62" ry="16" fill="#030405" opacity=".6"/>
    <path d="M18 26h95l12 32v126c0 10-8 18-18 18H24c-10 0-18-8-18-18V58l12-32Z" fill="#111416" stroke="#5f686e" stroke-width="4"/>
    <path d="M22 61h88v106H22z" fill="#202529"/>
    <path d="M32 70h10v88H32zM52 70h10v88H52zM72 70h10v88H72zM92 70h10v88H92z" fill="#ffd21f"/>
    <path d="M36 0h59c9 0 16 7 16 16v10H20V16C20 7 27 0 36 0Z" fill="#191d20" stroke="#ffd21f" stroke-width="4"/>
  </g>
  <g transform="translate(76 249)">
    <path d="M18 57h105c18 0 33 15 33 33v6H0v-6c0-18 15-33 33-33h12l18-31h40l20 31" fill="#121619" stroke="#ffd21f" stroke-width="4"/>
    <circle cx="43" cy="98" r="18" fill="#060708" stroke="#d8dde0" stroke-width="7"/>
    <circle cx="118" cy="98" r="18" fill="#060708" stroke="#d8dde0" stroke-width="7"/>
    <path d="M63 58h45L91 36H74z" fill="#22282c"/>
  </g>
</svg>
